<svg width="30" height="31" viewBox="0 0 30 31" fill="none" xmlns="http://www.w3.org/2000/svg">
<g clip-path="url(#clip0_451_1326)">
<path d="M28.0917 14.9083L15.5917 2.40834C15.4356 2.25313 15.2243 2.16602 15.0042 2.16602C14.784 2.16602 14.5728 2.25313 14.4167 2.40834L1.91669 14.9083C1.78017 15.0678 1.70883 15.2728 1.71693 15.4826C1.72503 15.6923 1.81197 15.8912 1.96039 16.0396C2.1088 16.1881 2.30775 16.275 2.51748 16.2831C2.72721 16.2912 2.93227 16.2199 3.09169 16.0833L15 4.17501L26.9084 16.0917C27.0678 16.2282 27.2728 16.2995 27.4826 16.2914C27.6923 16.2833 27.8912 16.1964 28.0397 16.048C28.1881 15.8996 28.275 15.7006 28.2831 15.4909C28.2912 15.2812 28.2199 15.0761 28.0834 14.9167L28.0917 14.9083Z" fill="#FE0002"/>
<path d="M23.3333 27.1674H19.1667V18.8341H10.8333V27.1674H6.66667V15.5008L5 17.1674V27.1674C5 27.6095 5.17559 28.0334 5.48816 28.346C5.80072 28.6585 6.22464 28.8341 6.66667 28.8341H12.5V20.5008H17.5V28.8341H23.3333C23.7754 28.8341 24.1993 28.6585 24.5118 28.346C24.8244 28.0334 25 27.6095 25 27.1674V16.9674L23.3333 15.3008V27.1674Z" fill="#FE0002"/>
</g>
<defs>
<clipPath id="clip0_451_1326">
<rect width="30" height="30" fill="white" transform="translate(0 0.5)"/>
</clipPath>
</defs>
</svg>
