<svg width="30" height="31" viewBox="0 0 30 31" fill="none" xmlns="http://www.w3.org/2000/svg">
<path d="M15 25.9996L14.52 25.4596C14.22 25.1596 7.20001 16.8796 7.20001 11.8996C7.20001 7.57961 10.68 4.09961 15 4.09961C19.32 4.09961 22.8 7.57961 22.8 11.8996C22.8 16.8796 15.78 25.1596 15.48 25.5196L15 25.9996ZM15 5.29961C11.34 5.29961 8.40001 8.23961 8.40001 11.8996C8.40001 15.7396 13.44 22.2196 15 24.1396C16.56 22.2196 21.6 15.7396 21.6 11.8996C21.6 8.23961 18.66 5.29961 15 5.29961Z" fill="#FE0002"/>
<path d="M15 14.9004C13.32 14.9004 12 13.5804 12 11.9004C12 10.2204 13.32 8.90039 15 8.90039C16.68 8.90039 18 10.2204 18 11.9004C18 13.5804 16.68 14.9004 15 14.9004ZM15 10.1004C13.98 10.1004 13.2 10.8804 13.2 11.9004C13.2 12.9204 13.98 13.7004 15 13.7004C16.02 13.7004 16.8 12.9204 16.8 11.9004C16.8 10.8804 16.02 10.1004 15 10.1004Z" fill="#FE0002"/>
</svg>
